<svg width="345" height="64" viewBox="0 0 345 64" fill="none" xmlns="http://www.w3.org/2000/svg">
<rect width="345" height="64" rx="20" fill="#1D228E"/>
<path d="M55.48 11.7539H53.54V49.2539H55.48V11.7539Z" fill="white"/>
<path d="M59.7203 11.7539H57.7803V49.2439H59.7203V11.7539Z" fill="white"/>
<path d="M42.6496 39.275C39.4796 44.675 33.5896 48.025 27.2896 48.025H27.2396C17.4796 47.995 9.54961 40.155 9.54961 30.525C9.54961 20.895 17.4996 13.035 27.2896 13.035C33.5996 13.035 39.4896 16.385 42.6596 21.785L42.6896 21.835L44.3696 20.875L44.3396 20.825C40.8196 14.845 34.2896 11.125 27.2896 11.125C16.4296 11.125 7.59961 19.825 7.59961 30.525C7.59961 41.225 16.4296 49.935 27.2896 49.935C34.2896 49.935 40.8196 46.215 44.3396 40.235L44.3696 40.185L42.6896 39.225L42.6596 39.275H42.6496Z" fill="white"/>
<path d="M27.2896 17.2147C32.0996 17.2147 36.5796 19.7647 38.9896 23.8747L39.0196 23.9247L40.6896 22.9647L40.6596 22.9147C37.8996 18.2147 32.7796 15.3047 27.2896 15.3047H27.2296C18.7396 15.3347 11.8496 22.1547 11.8496 30.5247C11.8496 38.8947 18.7796 45.7447 27.2896 45.7447C32.7796 45.7447 37.9096 42.8247 40.6596 38.1347L40.6896 38.0847L39.0196 37.1247L38.9896 37.1747C36.5796 41.2847 32.0996 43.8347 27.2896 43.8347C19.8396 43.8347 13.7796 37.8647 13.7796 30.5247C13.7796 23.1847 19.8396 17.2147 27.2896 17.2147Z" fill="white"/>
<path d="M71.4595 11.7656H69.5195V49.2456H71.4595V11.7656Z" fill="white"/>
<path d="M73.8798 16.2642L73.7598 16.0742V49.2442H75.6998V23.0342L88.7198 45.2642L101.74 23.0342V49.2442H103.68V16.0742L88.7198 41.6142L73.8698 16.2642H73.8798Z" fill="white"/>
<path d="M107.93 11.7656H105.99V49.2556H107.93V11.7656Z" fill="white"/>
<path d="M88.72 33.6856L75.89 11.7656H73.75L88.73 37.3156L103.69 11.7656H101.55L88.72 33.6856Z" fill="white"/>
<path d="M133.68 11.7656H132.52V49.2556H133.68V11.7656Z" fill="white"/>
<path d="M329.32 46.7459C327.86 46.7459 326.93 45.8459 326.93 44.1759C326.93 42.3059 328.01 41.5559 329.37 41.5559C330.21 41.5559 330.68 41.8059 331.21 42.1359V46.3059C330.92 46.5259 330.5 46.7559 329.31 46.7559M333.4 48.9659V39.9259L331.56 40.4259C331.12 39.9759 330.19 39.7459 328.75 39.7459C326.13 39.7459 324.5 41.6359 324.5 44.2359C324.5 46.6459 325.9 48.5859 328.75 48.5859C329.66 48.5859 330.65 48.4059 331.21 48.1059V48.7659C331.16 49.8259 330.46 50.8859 328.57 50.8859C327.51 50.8859 326.34 50.6859 325.51 50.0359V52.2859C326.28 52.7559 327.83 52.8759 328.78 52.8759C331.42 52.8759 333.25 51.8359 333.39 48.9559H333.41L333.4 48.9659ZM319.39 39.7659C318.22 39.7659 317.27 40.1059 316.53 40.5559L314.71 39.9759V48.3559H316.88V42.1859C317.45 41.8659 318.14 41.5959 318.89 41.5959C320.04 41.5959 320.6 42.2259 320.6 43.1959V48.3559H322.79V42.8959C322.79 41.0959 321.7 39.7659 319.4 39.7659M312.47 40.0159H310.35V48.3559H312.47V40.0159ZM312.8 37.1559C312.8 36.4159 312.18 35.8059 311.41 35.8059C310.64 35.8059 310.04 36.4159 310.04 37.1559C310.04 37.8959 310.66 38.5259 311.41 38.5259C312.16 38.5259 312.8 37.9159 312.8 37.1559ZM306.62 46.6659C305.84 46.6659 305.6 46.2359 305.6 45.7359V42.0459H308.3V40.3559H305.6V37.3859L303.48 38.1359V45.8259C303.48 47.4259 304.3 48.4659 306.18 48.4659C307.18 48.4659 308.26 48.1959 308.59 47.9859L308.57 46.1559C308.28 46.3359 307.3 46.6559 306.62 46.6559V46.6659ZM295.88 43.1759C296.03 42.0559 296.89 41.3559 297.89 41.3559C298.89 41.3559 299.73 41.9859 299.73 43.1759H295.88ZM297.92 39.7259C295.18 39.7259 293.62 41.7459 293.62 44.1659C293.62 46.5859 295.17 48.5859 298.14 48.5859C299.16 48.5859 300.73 48.3559 301.51 47.8859V45.9259C300.58 46.5359 299.21 46.7859 298.39 46.7859C296.88 46.7859 295.93 45.9259 295.85 44.5759H301.87V43.8059C301.87 40.8359 299.98 39.7259 297.91 39.7259M290.32 39.9759L287 43.8259L290.5 48.3559H293.33L289.57 43.7559L292.98 39.9859H290.32V39.9759ZM286.82 36.2059L284.7 35.4559V48.3659H286.82V36.2159V36.2059ZM277.32 39.8959V48.3659H279.52V42.6159C279.52 42.6159 280.27 41.7559 281.53 41.7559C282.31 41.7559 283.13 42.0959 283.37 42.2059V40.0359C282.93 39.8159 282.31 39.6959 281.75 39.6959C280.58 39.6959 279.73 40.3059 279.27 40.7959L277.32 39.9159V39.8959ZM273.09 44.8059V46.3759C272.54 46.7759 271.77 47.1159 271.01 47.1159C270.25 47.1159 269.57 46.7559 269.57 45.9459C269.57 45.1359 270.21 44.8159 270.96 44.8159H273.09V44.8059ZM271.63 39.6459C270.52 39.6459 269.01 39.8959 268.02 40.3359V42.3259C269 41.8559 270.34 41.4959 271.3 41.4959C272.54 41.4959 273.07 42.0559 273.07 42.9359V43.3159H270.88C268.36 43.3159 267.41 44.4859 267.41 45.9959C267.41 48.0059 269.05 48.6559 270.6 48.6559C271.71 48.6559 272.66 48.3359 273.28 47.8659L275.21 48.5459V43.1159C275.21 41.1559 274.37 39.6459 271.62 39.6459M263.27 39.6959V48.3659H265.53V35.7659H263.41L258.98 43.1959L254.55 35.7659H252.45V48.3659H254.68V39.7359L258.91 47.0359H258.98L263.26 39.6959H263.27ZM244.03 37.1459C244.72 37.1459 245.71 37.4659 245.98 37.6459L246 35.8159C245.67 35.6059 244.6 35.3359 243.61 35.3359C241.73 35.3359 240.91 36.3759 240.91 37.9759V40.2559H239.92V41.8959H240.91V48.3659H243.01V41.8959H245.73V40.2059H243.01V38.0859C243.01 37.5859 243.27 37.1559 244.03 37.1559M234.38 46.8259C232.77 46.8259 231.88 45.6559 231.88 44.1659C231.88 42.6759 232.77 41.5059 234.36 41.5059C235.95 41.5059 236.82 42.6959 236.82 44.1659C236.82 45.6359 235.96 46.8259 234.38 46.8259ZM234.36 39.7259C231.5 39.7259 229.69 41.7359 229.69 44.1659C229.69 46.5959 231.5 48.6059 234.36 48.6059C237.22 48.6059 239.01 46.5959 239.01 44.1659C239.01 41.7359 237.22 39.7259 234.36 39.7259ZM217.44 43.1959C217.59 42.0759 218.44 41.3759 219.44 41.3759C220.44 41.3759 221.28 42.0059 221.28 43.1959H217.43H217.44ZM219.48 39.7459C216.74 39.7459 215.18 41.7659 215.18 44.1859C215.18 46.6059 216.73 48.6059 219.7 48.6059C220.72 48.6059 222.29 48.3759 223.07 47.9059V45.9459C222.14 46.5559 220.77 46.8059 219.95 46.8059C218.44 46.8059 217.49 45.9459 217.41 44.5959H223.43V43.8259C223.43 40.8559 221.54 39.7459 219.47 39.7459M212.18 46.6859C211.4 46.6859 211.16 46.2559 211.16 45.7559V42.0659H213.86V40.3759H211.16V37.4059L209.04 38.1559V45.8459C209.04 47.4459 209.86 48.4859 211.74 48.4859C212.74 48.4859 213.82 48.2159 214.15 48.0059L214.13 46.1759C213.84 46.3559 212.85 46.6759 212.18 46.6759V46.6859ZM202.28 48.6059C203.47 48.6059 204.41 48.2659 205.16 47.8159L206.98 48.3959V40.0159H204.79V46.1859C204.24 46.5059 203.49 46.7959 202.75 46.7959C201.6 46.7959 201.09 46.1459 201.09 45.1759V40.0159H198.9V45.4859C198.9 47.2859 199.99 48.6159 202.27 48.6159M195.27 46.6959C194.49 46.6959 194.25 46.2659 194.25 45.7659V42.0759H196.95V40.3859H194.25V37.4159L192.13 38.1659V45.8559C192.13 47.4559 192.95 48.4959 194.83 48.4959C195.83 48.4959 196.91 48.2259 197.24 48.0159L197.22 46.1859C196.93 46.3659 195.94 46.6859 195.27 46.6859V46.6959ZM190.13 40.0459H188.01V48.3859H190.13V40.0459ZM190.46 37.1859C190.46 36.4459 189.84 35.8359 189.07 35.8359C188.3 35.8359 187.7 36.4459 187.7 37.1859C187.7 37.9259 188.32 38.5559 189.07 38.5559C189.82 38.5559 190.46 37.9459 190.46 37.1859ZM184.28 46.6959C183.5 46.6959 183.26 46.2659 183.26 45.7659V42.0759H185.96V40.3859H183.26V37.4159L181.14 38.1659V45.8559C181.14 47.4559 181.96 48.4959 183.84 48.4959C184.85 48.4959 185.92 48.2259 186.25 48.0159L186.23 46.1859C185.94 46.3659 184.95 46.6859 184.28 46.6859V46.6959ZM175.98 48.6159C178.04 48.6159 179.58 47.8259 179.58 45.9159C179.58 44.5359 178.62 43.9559 177.41 43.5459L175.77 42.9659C175.35 42.8259 175.1 42.5659 175.1 42.2259C175.1 41.8659 175.41 41.3959 176.32 41.3959C177.07 41.3959 178.18 41.6459 179.13 42.2459V40.2859C178.86 40.1459 177.63 39.7659 176.28 39.7659C173.93 39.7659 172.96 40.8959 172.96 42.3759C172.96 43.5259 173.61 44.2059 174.88 44.6259L176.54 45.1859C177.01 45.3459 177.42 45.6859 177.42 45.9759C177.42 46.2459 177.37 46.9459 176 46.9459C174.98 46.9459 173.8 46.5459 173.03 46.0659V48.0459C173.67 48.3859 174.91 48.6259 176 48.6259M167.76 39.7959C166.59 39.7959 165.64 40.1359 164.9 40.5859L163.08 40.0059V48.3859H165.25V42.2159C165.82 41.8959 166.51 41.6259 167.26 41.6259C168.41 41.6259 168.97 42.2559 168.97 43.2259V48.3859H171.16V42.9259C171.16 41.1259 170.07 39.7959 167.77 39.7959M158.74 48.3859H161.02V35.8059H158.74V48.3859Z" fill="white"/>
<path d="M268.241 23.2351C268.241 21.3651 269.371 20.4151 270.741 20.4151C271.601 20.4151 272.291 20.8151 272.891 21.1851V25.2451C272.421 25.4951 271.601 25.8051 270.771 25.8051C269.311 25.8051 268.231 24.9051 268.231 23.2351M274.991 27.5151V14.4551L272.871 15.2051V19.3751C272.321 19.1251 271.431 18.7851 270.411 18.7851C267.791 18.7851 266.161 20.6751 266.161 23.2751C266.161 25.6851 267.561 27.6251 270.411 27.6251C271.491 27.6251 272.671 27.2651 273.161 26.8551L274.981 27.5051L274.991 27.5151ZM258.931 22.1951C259.081 21.0751 259.931 20.3751 260.941 20.3751C261.951 20.3751 262.781 21.0051 262.781 22.1951H258.931ZM260.971 18.7451C258.231 18.7451 256.671 20.7551 256.671 23.1851C256.671 25.6151 258.221 27.6051 261.191 27.6051C262.211 27.6051 263.781 27.3651 264.561 26.9051V24.9451C263.631 25.5551 262.261 25.8051 261.441 25.8051C259.931 25.8051 258.981 24.9451 258.901 23.5951H264.921V22.8251C264.921 19.8551 263.021 18.7451 260.961 18.7451M249.781 18.9051V27.3751H251.991V21.6251C251.991 21.6251 252.741 20.7651 254.001 20.7651C254.781 20.7651 255.611 21.1051 255.841 21.2151V19.0351C255.401 18.8151 254.781 18.6951 254.221 18.6951C253.051 18.6951 252.201 19.3051 251.741 19.7951L249.791 18.9151L249.781 18.9051ZM242.011 22.1951C242.161 21.0751 243.011 20.3751 244.011 20.3751C245.011 20.3751 245.851 21.0051 245.851 22.1951H242.001H242.011ZM244.051 18.7451C241.311 18.7451 239.751 20.7551 239.751 23.1851C239.751 25.6151 241.301 27.6051 244.271 27.6051C245.291 27.6051 246.861 27.3651 247.641 26.9051V24.9451C246.711 25.5551 245.341 25.8051 244.521 25.8051C243.011 25.8051 242.061 24.9451 241.981 23.5951H248.001V22.8251C248.001 19.8551 246.101 18.7451 244.041 18.7451H244.051ZM236.761 25.6851C235.981 25.6851 235.741 25.2551 235.741 24.7551V21.0651H238.441V19.3751H235.741V16.4051L233.621 17.1551V24.8451C233.621 26.4451 234.441 27.4851 236.321 27.4851C237.331 27.4851 238.401 27.2151 238.731 27.0051L238.711 25.1751C238.421 25.3551 237.441 25.6751 236.761 25.6751V25.6851ZM226.291 18.9051V27.3751H228.491V21.6251C228.491 21.6251 229.241 20.7651 230.501 20.7651C231.281 20.7651 232.101 21.1051 232.341 21.2151V19.0351C231.901 18.8151 231.281 18.6951 230.721 18.6951C229.551 18.6951 228.701 19.3051 228.241 19.7951L226.291 18.9151V18.9051ZM222.061 23.8151V25.3751C221.511 25.7751 220.741 26.1151 219.981 26.1151C219.221 26.1151 218.541 25.7551 218.541 24.9451C218.541 24.1351 219.181 23.8151 219.931 23.8151H222.071H222.061ZM220.601 18.6551C219.491 18.6551 217.981 18.9051 216.991 19.3451V21.3351C217.981 20.8651 219.311 20.5151 220.281 20.5151C221.521 20.5151 222.051 21.0751 222.051 21.9551V22.3351H219.861C217.351 22.3351 216.391 23.5051 216.391 25.0151C216.391 27.0251 218.031 27.6751 219.581 27.6751C220.691 27.6751 221.641 27.3551 222.261 26.8851L224.191 27.5751V22.1451C224.191 20.1851 223.351 18.6751 220.601 18.6751M211.341 18.8151C210.211 18.8151 209.421 19.1751 208.751 19.5651V14.4751L206.631 15.2251V27.3751H208.751V21.2651C209.301 20.9551 210.061 20.6351 210.831 20.6351C211.961 20.6351 212.541 21.2651 212.541 22.2351V27.3951H214.711V21.9351C214.711 20.1351 213.631 18.8051 211.341 18.8051V18.8151ZM192.431 21.1551C192.431 24.7151 195.041 27.6451 199.181 27.6451C201.261 27.6451 203.081 26.9051 204.181 26.1351V23.5951C202.761 25.0151 200.941 25.6851 199.261 25.6851C196.471 25.6851 194.701 23.7751 194.701 21.1251C194.701 18.4751 196.491 16.5551 199.301 16.5551C200.961 16.5551 202.771 17.2051 204.191 18.6751V16.0851C203.101 15.3151 201.271 14.5951 199.231 14.5951C195.141 14.5951 192.441 17.5251 192.441 21.1551M180.801 22.2151C180.951 21.0951 181.811 20.3951 182.811 20.3951C183.811 20.3951 184.651 21.0251 184.651 22.2151H180.801ZM182.841 18.7651C180.101 18.7651 178.541 20.7751 178.541 23.2051C178.541 25.6351 180.091 27.6251 183.061 27.6251C184.081 27.6251 185.651 27.3851 186.431 26.9251V24.9651C185.501 25.5751 184.131 25.8251 183.311 25.8251C181.801 25.8251 180.851 24.9651 180.771 23.6151H186.791V22.8451C186.791 19.8751 184.891 18.7651 182.831 18.7651M173.681 18.8151C172.551 18.8151 171.761 19.1751 171.091 19.5651V14.4751L168.971 15.2251V27.3751H171.091V21.2651C171.641 20.9551 172.411 20.6351 173.171 20.6351C174.301 20.6351 174.881 21.2651 174.881 22.2351V27.3951H177.051V21.9351C177.051 20.1351 175.971 18.8051 173.681 18.8051V18.8151ZM163.211 27.3851V16.7251H167.071V14.7851H157.061V16.7251H160.941V27.3851H163.211Z" fill="white"/>
</svg>
