<svg width="30" height="30" viewBox="0 0 30 30" fill="none" xmlns="http://www.w3.org/2000/svg">
<path fill-rule="evenodd" clip-rule="evenodd" d="M25.9368 7.58402C25.9374 7.55611 25.9377 7.5281 25.9377 7.5C25.9377 5.57289 24.3999 4.08059 22.4906 3.12594C20.5252 2.14325 17.8756 1.5625 15.0002 1.5625C12.1248 1.5625 9.47529 2.14325 7.50991 3.12594C5.60842 4.07668 4.07534 5.56067 4.06282 7.47634C4.0626 7.48453 4.0625 7.49274 4.0625 7.50098L4.06272 13.7308C4.06257 13.7376 4.0625 13.7444 4.0625 13.7512L4.06274 21.8749C4.06258 23.9257 5.52322 25.5842 7.47012 26.6769C9.44493 27.7853 12.1093 28.4375 15 28.4375C17.8907 28.4375 20.5551 27.7853 22.53 26.6769C24.477 25.5843 25.9377 23.9258 25.9377 21.875L25.9368 14.4632C25.9374 14.4339 25.9377 14.4045 25.9377 14.375L25.9368 7.58402ZM21.652 4.80299C19.9981 3.97604 17.6477 3.4375 15.0002 3.4375C12.3528 3.4375 10.0023 3.97604 8.34843 4.80299C6.63845 5.65798 5.93774 6.66569 5.93774 7.5C5.93774 8.33431 6.63845 9.34202 8.34843 10.197C10.0023 11.024 12.3528 11.5625 15.0002 11.5625C17.6477 11.5625 19.9981 11.024 21.652 10.197C23.3251 9.36047 24.032 8.37772 24.0618 7.55424L24.0617 7.50024C24.0617 7.4888 24.0619 7.47741 24.0624 7.46607C24.0436 6.63847 23.3389 5.64642 21.652 4.80299ZM24.0622 10.8844C23.5914 11.2599 23.0574 11.5907 22.4906 11.8741C20.5252 12.8568 17.8756 13.4375 15.0002 13.4375C12.1248 13.4375 9.47529 12.8567 7.50991 11.8741C6.94286 11.5905 6.40858 11.2596 5.93762 10.8839L5.93774 14.3751C5.93766 15.4493 6.71548 16.6033 8.38779 17.5418C10.0322 18.4647 12.3679 19.0625 15 19.0625C17.6321 19.0625 19.9678 18.4647 21.6124 17.5418C23.2519 16.6217 24.0318 15.4946 24.0618 14.4385L24.0617 13.7502C24.0617 13.7363 24.062 13.7225 24.0626 13.7088L24.0622 10.8844ZM24.0623 18.1012C23.6068 18.5036 23.0884 18.8635 22.53 19.1769C20.5551 20.2853 17.8907 20.9375 15 20.9375C12.1093 20.9375 9.44493 20.2853 7.47012 19.1769C6.9116 18.8635 6.3931 18.5034 5.93763 18.1009L5.93774 21.8751C5.93766 22.9493 6.71548 24.1033 8.38779 25.0418C10.0322 25.9647 12.3679 26.5625 15 26.5625C17.6321 26.5625 19.9678 25.9647 21.6124 25.0418C23.2848 24.1032 24.0627 22.9492 24.0627 21.875L24.0623 18.1012Z" fill="#F15024"/>
</svg>
