<svg width="30" height="30" viewBox="0 0 30 30" fill="none" xmlns="http://www.w3.org/2000/svg">
<path d="M2.5 1.5625C3.01777 1.5625 3.4375 1.98223 3.4375 2.5V23.125C3.4375 25.0235 4.97652 26.5625 6.875 26.5625H27.5C28.0178 26.5625 28.4375 26.9822 28.4375 27.5C28.4375 28.0178 28.0178 28.4375 27.5 28.4375H6.875C3.94099 28.4375 1.5625 26.059 1.5625 23.125V2.5C1.5625 1.98223 1.98223 1.5625 2.5 1.5625Z" fill="#F15024"/>
<path d="M7.8125 22.5V20.625C7.8125 20.1072 8.23223 19.6875 8.75 19.6875C9.26777 19.6875 9.6875 20.1072 9.6875 20.625V22.5C9.6875 23.0178 9.26777 23.4375 8.75 23.4375C8.23223 23.4375 7.8125 23.0178 7.8125 22.5Z" fill="#F15024"/>
<path d="M12.8125 18.3125V22.5C12.8125 23.0178 13.2322 23.4375 13.75 23.4375C14.2678 23.4375 14.6875 23.0178 14.6875 22.5L14.6875 18.3125C14.6875 17.7947 14.2678 17.375 13.75 17.375C13.2322 17.375 12.8125 17.7947 12.8125 18.3125Z" fill="#F15024"/>
<path d="M18.75 23.4375C18.2322 23.4375 17.8125 23.0178 17.8125 22.5V16C17.8125 15.4822 18.2322 15.0625 18.75 15.0625C19.2678 15.0625 19.6875 15.4822 19.6875 16V22.5C19.6875 23.0178 19.2678 23.4375 18.75 23.4375Z" fill="#F15024"/>
<path d="M22.8125 22.5C22.8125 23.0178 23.2322 23.4375 23.75 23.4375C24.2678 23.4375 24.6875 23.0178 24.6875 22.5L24.6875 13.75C24.6875 13.2322 24.2678 12.8125 23.75 12.8125C23.2322 12.8125 22.8125 13.2322 22.8125 13.75L22.8125 22.5Z" fill="#F15024"/>
<path d="M22.7365 5.9375L17.5 11.1742L14.4129 8.08709C14.0468 7.72097 13.4532 7.72097 13.0871 8.08709L6.83709 14.3371C6.47097 14.7032 6.47097 15.2968 6.83709 15.6629C7.2032 16.029 7.7968 16.029 8.16291 15.6629L13.75 10.0758L16.8371 13.1629C17.0129 13.3387 17.2514 13.4375 17.5 13.4375C17.7486 13.4375 17.9871 13.3387 18.1629 13.1629L24.0623 7.26336V9.6875C24.0623 10.2053 24.482 10.625 24.9998 10.625C25.5175 10.625 25.9373 10.2053 25.9373 9.6875V5C25.9373 4.48223 25.5175 4.0625 24.9998 4.0625H20.3126C19.7948 4.0625 19.3751 4.48223 19.3751 5C19.3751 5.51777 19.7948 5.9375 20.3126 5.9375H22.7365Z" fill="#F15024"/>
</svg>
