<svg width="33" height="36" viewBox="0 0 33 36" fill="none" xmlns="http://www.w3.org/2000/svg">
<path d="M22.4783 14.9957C22.9393 14.5346 22.9393 13.7872 22.4783 13.3261C22.0173 12.8651 21.2698 12.8651 20.8087 13.3261L14.5602 19.5747L11.4598 16.4743C10.9987 16.0132 10.2513 16.0132 9.79022 16.4743C9.32919 16.9353 9.32919 17.6828 9.79022 18.1438L13.7254 22.079C14.1864 22.5401 14.9339 22.5401 15.395 22.079L22.4783 14.9957Z" fill="#F15024"/>
<path fill-rule="evenodd" clip-rule="evenodd" d="M19.155 0.72192C17.2543 -0.240792 15.0088 -0.240631 13.1083 0.72235L1.94086 6.38095C0.750316 6.9842 0 8.20553 0 9.54019V12.7274C0 13.5183 0.159907 15.0761 0.340506 16.6069C0.760626 20.1679 2.13528 23.5266 4.20533 26.4177C6.60643 29.7712 9.76127 32.5141 13.416 34.4257L14.5945 35.0422C15.5574 35.5458 16.706 35.5458 17.6689 35.042L18.85 34.4239C22.5013 32.5135 25.6539 29.7737 28.0548 26.4245C30.1302 23.5293 31.5085 20.1648 31.9292 16.5971C32.1092 15.0697 32.2685 13.5168 32.2685 12.7274V9.54042C32.2685 8.20558 31.518 6.98412 30.3272 6.38095L19.155 0.72192ZM14.1755 2.82851C15.4053 2.20541 16.8582 2.2053 18.0881 2.82824L29.2603 8.48726C29.6572 8.68832 29.9074 9.09548 29.9074 9.54042V12.7274C29.9074 13.3493 29.7693 14.7517 29.5843 16.3207C29.2139 19.4624 27.9965 22.4532 26.1358 25.0489C23.9499 28.0981 21.0797 30.5925 17.7554 32.3319L16.5742 32.9499C16.2969 33.095 15.9661 33.095 15.6888 32.95L14.5103 32.3335C11.1831 30.5932 8.311 28.0961 6.12508 25.0432C4.26939 22.4515 3.05531 19.4661 2.68536 16.3302C2.49984 14.7577 2.36111 13.3507 2.36111 12.7274V9.54019C2.36111 9.0953 2.61122 8.68819 3.00807 8.48711L14.1755 2.82851Z" fill="#F15024"/>
</svg>
