<svg width="30" height="30" viewBox="0 0 30 30" fill="none" xmlns="http://www.w3.org/2000/svg">
<path d="M15.625 7.1875C15.625 6.66973 15.2053 6.25 14.6875 6.25C14.1697 6.25 13.75 6.66973 13.75 7.1875V14.6875C13.75 15.0107 13.9165 15.3112 14.1906 15.4825L19.1906 18.6075C19.6297 18.8819 20.2081 18.7484 20.4825 18.3094C20.7569 17.8703 20.6234 17.2919 20.1844 17.0175L15.625 14.1679V7.1875Z" fill="#F15024"/>
<path fill-rule="evenodd" clip-rule="evenodd" d="M14.6875 0C6.57582 0 0 6.57582 0 14.6875C0 22.7992 6.57582 29.375 14.6875 29.375C22.7992 29.375 29.375 22.7992 29.375 14.6875C29.375 6.57582 22.7992 0 14.6875 0ZM1.875 14.6875C1.875 7.61135 7.61135 1.875 14.6875 1.875C21.7636 1.875 27.5 7.61135 27.5 14.6875C27.5 21.7636 21.7636 27.5 14.6875 27.5C7.61135 27.5 1.875 21.7636 1.875 14.6875Z" fill="#F15024"/>
</svg>
